<svg width="80" height="80" viewBox="0 0 80 80" fill="none" xmlns="http://www.w3.org/2000/svg">
<g clip-path="url(#clip0_313_29)">
<path d="M68 19.5001H49.3333V18.1667C49.3255 11.5424 43.9577 6.17456 37.3333 6.16675H12C5.37565 6.17456 0.0078125 11.5424 0 18.1667V34.1667C0.0078125 40.7911 5.37565 46.1589 12 46.1667H13.3333V56.8334C13.3333 57.3725 13.6582 57.8588 14.1562 58.0652C14.6543 58.2716 15.2279 58.157 15.6094 57.7761L27.2188 46.1667H30.6667V47.5001C30.6745 54.1244 36.0423 59.4923 42.6667 59.5001H50.1146L64.3906 73.7761C64.7721 74.157 65.3457 74.2716 65.8438 74.0652C66.3418 73.8588 66.6667 73.3725 66.6667 72.8334V59.5001H68C74.6243 59.4923 79.9922 54.1244 80 47.5001V31.5001C79.9922 24.8757 74.6243 19.5079 68 19.5001ZM26.6667 43.5001C26.3132 43.5001 25.974 43.6407 25.724 43.8907L16 53.6147V44.8334C16 44.0971 15.403 43.5001 14.6667 43.5001H12C6.84766 43.4942 2.67253 39.3191 2.66667 34.1667V18.1667C2.67253 13.0144 6.84766 8.83927 12 8.83341H37.3333C42.4857 8.83927 46.6608 13.0144 46.6667 18.1667V19.5001H42.6667C36.0423 19.5079 30.6745 24.8757 30.6667 31.5001V43.5001H26.6667ZM77.3333 47.5001C77.3275 52.6524 73.1523 56.8276 68 56.8334H65.3333C64.597 56.8334 64 57.4304 64 58.1667V69.6147L51.6094 57.224C51.3594 56.974 51.0202 56.8334 50.6667 56.8334H42.6667C37.5143 56.8276 33.3392 52.6524 33.3333 47.5001V31.5001C33.3392 26.3477 37.5143 22.1726 42.6667 22.1667H68C73.1523 22.1726 77.3275 26.3477 77.3333 31.5001V47.5001Z" fill="url(#paint0_linear_313_29)"/>
<path d="M70.6667 30.1667H40C39.2637 30.1667 38.6667 30.7638 38.6667 31.5001C38.6667 32.2364 39.2637 32.8334 40 32.8334H70.6667C71.403 32.8334 72 32.2364 72 31.5001C72 30.7638 71.403 30.1667 70.6667 30.1667Z" fill="url(#paint1_linear_313_29)"/>
<path d="M70.6667 38.1668H40C39.2637 38.1668 38.6667 38.7638 38.6667 39.5001C38.6667 40.2364 39.2637 40.8334 40 40.8334H70.6667C71.403 40.8334 72 40.2364 72 39.5001C72 38.7638 71.403 38.1668 70.6667 38.1668Z" fill="url(#paint2_linear_313_29)"/>
<path d="M70.6667 46.1668H40C39.2637 46.1668 38.6667 46.7638 38.6667 47.5001C38.6667 48.2364 39.2637 48.8334 40 48.8334H70.6667C71.403 48.8334 72 48.2364 72 47.5001C72 46.7638 71.403 46.1668 70.6667 46.1668Z" fill="url(#paint3_linear_313_29)"/>
<path d="M8 19.5001H36C36.7363 19.5001 37.3333 18.9031 37.3333 18.1667C37.3333 17.4304 36.7363 16.8334 36 16.8334H8C7.26367 16.8334 6.66667 17.4304 6.66667 18.1667C6.66667 18.9031 7.26367 19.5001 8 19.5001Z" fill="url(#paint4_linear_313_29)"/>
<path d="M28 24.8334H8C7.26367 24.8334 6.66667 25.4304 6.66667 26.1667C6.66667 26.9031 7.26367 27.5001 8 27.5001H28C28.7363 27.5001 29.3333 26.9031 29.3333 26.1667C29.3333 25.4304 28.7363 24.8334 28 24.8334Z" fill="url(#paint5_linear_313_29)"/>
<path d="M26.6667 32.8334H8C7.26367 32.8334 6.66667 33.4304 6.66667 34.1667C6.66667 34.9031 7.26367 35.5001 8 35.5001H26.6667C27.403 35.5001 28 34.9031 28 34.1667C28 33.4304 27.403 32.8334 26.6667 32.8334Z" fill="url(#paint6_linear_313_29)"/>
</g>
<defs>
<linearGradient id="paint0_linear_313_29" x1="80" y1="6.00006" x2="91.5065" y2="29.8472" gradientUnits="userSpaceOnUse">
<stop stop-color="#719E40"/>
<stop offset="0.330235" stop-color="#4F856C"/>
<stop offset="1" stop-color="#2A699C"/>
</linearGradient>
<linearGradient id="paint1_linear_313_29" x1="80" y1="6.00006" x2="91.5065" y2="29.8472" gradientUnits="userSpaceOnUse">
<stop stop-color="#719E40"/>
<stop offset="0.330235" stop-color="#4F856C"/>
<stop offset="1" stop-color="#2A699C"/>
</linearGradient>
<linearGradient id="paint2_linear_313_29" x1="80" y1="6.00006" x2="91.5065" y2="29.8472" gradientUnits="userSpaceOnUse">
<stop stop-color="#719E40"/>
<stop offset="0.330235" stop-color="#4F856C"/>
<stop offset="1" stop-color="#2A699C"/>
</linearGradient>
<linearGradient id="paint3_linear_313_29" x1="80" y1="6.00006" x2="91.5065" y2="29.8472" gradientUnits="userSpaceOnUse">
<stop stop-color="#719E40"/>
<stop offset="0.330235" stop-color="#4F856C"/>
<stop offset="1" stop-color="#2A699C"/>
</linearGradient>
<linearGradient id="paint4_linear_313_29" x1="80" y1="6.00006" x2="91.5065" y2="29.8472" gradientUnits="userSpaceOnUse">
<stop stop-color="#719E40"/>
<stop offset="0.330235" stop-color="#4F856C"/>
<stop offset="1" stop-color="#2A699C"/>
</linearGradient>
<linearGradient id="paint5_linear_313_29" x1="80" y1="6.00006" x2="91.5065" y2="29.8472" gradientUnits="userSpaceOnUse">
<stop stop-color="#719E40"/>
<stop offset="0.330235" stop-color="#4F856C"/>
<stop offset="1" stop-color="#2A699C"/>
</linearGradient>
<linearGradient id="paint6_linear_313_29" x1="80" y1="6.00006" x2="91.5065" y2="29.8472" gradientUnits="userSpaceOnUse">
<stop stop-color="#719E40"/>
<stop offset="0.330235" stop-color="#4F856C"/>
<stop offset="1" stop-color="#2A699C"/>
</linearGradient>
<clipPath id="clip0_313_29">
<rect width="80" height="80" fill="white"/>
</clipPath>
</defs>
</svg>
