<?xml version="1.0" encoding="UTF-8"?>
<svg id="Layer_1" data-name="Layer 1" xmlns="http://www.w3.org/2000/svg" viewBox="0 0 80 80">
  <defs>
    <style>
      .cls-1 {
        fill: #6c9b46;
        stroke-width: 0px;
      }
    </style>
  </defs>
  <polygon class="cls-1" points="80 23.33 56.67 0 56.67 23.33 80 23.33"/>
  <path class="cls-1" d="M35,37.5c0-9.66-7.84-17.5-17.5-17.5S0,27.84,0,37.5v30h5v-30c0-6.9,5.6-12.5,12.5-12.5s12.5,5.6,12.5,12.5v30c0,4.14-3.36,7.5-7.5,7.5s-7.5-3.36-7.5-7.5v-30c0-1.38,1.12-2.5,2.5-2.5s2.5,1.12,2.5,2.5v30h5v-30c0-4.14-3.36-7.5-7.5-7.5s-7.5,3.36-7.5,7.5v30c0,6.9,5.6,12.5,12.5,12.5s12.5-5.6,12.5-12.5v-30Z"/>
  <path class="cls-1" d="M56.67,30c-3.68,0-6.67-2.99-6.67-6.67V0h-23.33c-3.68,0-6.67,2.98-6.67,6.66v6.67l.05.14c12.13,1.28,21.62,11.56,21.62,24.03v42.49s31.67,0,31.67,0c3.68,0,6.67-2.99,6.67-6.67V30h-23.33ZM73.33,73.33h-25v-6.67h25v6.67ZM73.33,60h-25v-6.67h25v6.67ZM73.33,46.67h-25v-6.67h25v6.67Z"/>
</svg>