<?xml version="1.0" encoding="UTF-8"?>
<svg id="Ebene_1" data-name="Ebene 1" xmlns="http://www.w3.org/2000/svg" xmlns:xlink="http://www.w3.org/1999/xlink" viewBox="0 0 1730.82 719.08">
  <defs>
    <style>
      .cls-1 {
        fill: url(#Unbenannter_Verlauf_2);
      }

      .cls-2 {
        fill: #729e42;
      }

      .cls-3 {
        fill: url(#Unbenannter_Verlauf);
      }

      .cls-4 {
        fill: #2c699c;
      }
    </style>
    <linearGradient id="Unbenannter_Verlauf" data-name="Unbenannter Verlauf" x1="521.19" y1="625.76" x2="62.78" y2="169.91" gradientTransform="translate(0 721.7) scale(1 -1)" gradientUnits="userSpaceOnUse">
      <stop offset="0" stop-color="#719e41"/>
      <stop offset=".61" stop-color="#2b699c"/>
    </linearGradient>
    <linearGradient id="Unbenannter_Verlauf_2" data-name="Unbenannter Verlauf 2" x1="542.63" y1="394.83" x2="128.89" y2="-16.6" gradientTransform="translate(0 721.7) scale(1 -1)" gradientUnits="userSpaceOnUse">
      <stop offset="0" stop-color="#719e41"/>
      <stop offset=".61" stop-color="#2b699c"/>
    </linearGradient>
  </defs>
  <g>
    <path class="cls-4" d="M895.49,214.26h-25.52v86.9h25.52v33.66h-88.66v-33.66h25.52v-86.9h-25.52v-34.32h88.66v34.32Z"/>
    <path class="cls-4" d="M952.47,334.82h-37.62V180.82h29.92l40.48,59.62,40.48-59.62h29.48v154h-37.4v-76.12l-22.22,32.78h-20.9l-22.22-33.22v76.56Z"/>
    <path class="cls-4" d="M1143.65,179.49c36.52,0,54.56,28.6,54.12,55.88-.44,26.84-18.48,53.68-54.12,53.68h-24.64v45.76h-37.62V179.49h62.26Zm0,74.14c11.66,0,17.38-9.46,17.38-18.48s-5.72-19.14-17.38-19.14h-24.64v37.62h24.64Z"/>
    <path class="cls-4" d="M1219.1,285.32v-104.5h37.62v104.28c0,23.1,43.56,22.66,43.56,0v-104.28h37.62v104.5c0,34.76-29.92,51.92-59.62,51.7-29.7,0-59.18-16.94-59.18-51.7Z"/>
    <path class="cls-4" d="M1402.58,298.52h64.68v36.3h-102.3V180.82h37.62v117.7h0Z"/>
    <path class="cls-4" d="M1562.52,229.44c0-10.34-8.36-15.84-20.02-15.84s-19.8,5.06-19.8,13.42c0,11.44,18.26,11.66,23.32,12.1,21.78,2.86,49.28,8.58,55.88,36.3,.66,3.52,1.1,7.48,1.1,10.78,0,32.12-31.24,50.6-60.5,50.6-25.08,0-59.18-15.4-59.18-54.56h38.06c0,15.18,12.76,18.04,21.34,18.04,12.32,0,22.22-3.52,22.22-12.32,0-11-17.6-11.44-23.32-12.1-24.86-2.42-54.34-7.92-57.2-43.34v.22c-1.76-33.88,25.96-54.12,58.74-54.12,27.5,0,57.2,15.4,57.2,50.82h-37.84Z"/>
    <path class="cls-4" d="M1667.02,298.52h63.8v36.3h-101.64V179.5h101.42v36.3h-63.58v21.56h62.26v36.52h-62.26v24.64h0Z"/>
  </g>
  <g>
    <polygon class="cls-3" points="160.04 411.79 248.55 279.02 350.31 459.06 465.21 123.2 559.16 334.61 719.08 334.61 719.08 179.77 539.31 179.77 539.31 0 179.77 0 179.77 179.77 0 179.77 0 411.79 160.04 411.79"/>
    <polygon class="cls-1" points="516.42 400.38 473.18 303.08 365.12 618.94 243.93 404.51 195.24 477.56 0 477.56 0 539.31 179.77 539.31 179.77 719.08 539.31 719.08 539.31 539.31 719.08 539.31 719.08 400.38 516.42 400.38"/>
  </g>
  <g>
    <path class="cls-2" d="M806.83,554.91v-150.14l15.24,.2c3.36,0,6.79-.12,10.29-.35s7.26-.47,11.3-.71c4.04-.23,8.58-.35,13.62-.35,12.85,0,23.29,1.53,31.33,4.59,8.04,3.06,13.91,7.38,17.61,12.97,3.7,5.58,5.55,12.18,5.55,19.78,0,5.04-.82,9.9-2.47,14.58s-4.15,8.73-7.52,12.16c-3.36,3.43-7.6,5.85-12.71,7.26,5.92,.61,11.23,2.47,15.94,5.6s8.44,7.2,11.2,12.21,4.14,10.64,4.14,16.9c0,9.15-1.83,17.22-5.5,24.22s-9.96,12.5-18.87,16.5-21.31,6-37.18,6c-6.46,0-13.1-.19-19.93-.56-6.83-.37-12.23-.66-16.19-.86h-15.85Zm31.38-87.68c1.21,.2,2.66,.35,4.34,.45,1.68,.1,3.45,.17,5.3,.2,1.85,.03,3.6,.05,5.25,.05h4.39c7.53,0,13.4-1.85,17.61-5.55,4.2-3.7,6.31-9.75,6.31-18.16,0-6.86-2.41-11.77-7.21-14.73-4.81-2.96-11.75-4.44-20.84-4.44-1.01,0-2.59,.05-4.74,.15-2.15,.1-4.24,.24-6.26,.4-2.02,.17-3.4,.42-4.14,.76v40.86h-.01Zm0,65.49c.94,.61,2.64,1.08,5.09,1.41,2.45,.34,5.1,.57,7.92,.71,2.83,.14,5.35,.2,7.57,.2,9.55,0,16.85-1.83,21.9-5.5,5.04-3.67,7.57-9.9,7.57-18.72,0-7.6-2.37-13.25-7.11-16.95s-12.33-5.55-22.75-5.55h-5.1c-1.92,0-3.87,.03-5.85,.1-1.98,.07-3.78,.14-5.4,.2-1.61,.07-2.89,.2-3.83,.4v43.69h-.01Z"/>
    <path class="cls-2" d="M1005.7,556.53c-14.4,.27-26.77-2.81-37.13-9.23s-18.23-15.5-23.61-27.24-7.94-25.41-7.67-41.01c.34-17.29,3.63-31.46,9.89-42.53,6.26-11.06,14.7-19.29,25.33-24.67s22.67-8.21,36.12-8.48c13.79-.27,25.71,2.71,35.77,8.93s17.76,15.1,23.11,26.64c5.35,11.54,7.85,25.14,7.52,40.81-.34,17.29-3.5,31.57-9.48,42.83-5.99,11.27-14.13,19.68-24.42,25.22-10.29,5.55-22.1,8.46-35.41,8.73h-.02Zm.61-23.21c11.23,0,20.14-4.4,26.74-13.22,6.59-8.81,9.89-22.6,9.89-41.37,0-9.82-1.3-18.63-3.88-26.44-2.59-7.8-6.48-13.97-11.65-18.52-5.18-4.54-11.67-6.81-19.47-6.81-7,0-13.4,1.75-19.22,5.25s-10.48,9.15-13.97,16.95c-3.5,7.8-5.25,18.16-5.25,31.08,0,9.89,1.38,18.84,4.14,26.84,2.76,8.01,6.86,14.38,12.31,19.12,5.45,4.74,12.24,7.11,20.38,7.11h-.02Z"/>
    <path class="cls-2" d="M1084.91,554.91l48.23-81.83,.2,9.89-47.62-77.99,34.51-.2,22.1,38.64,11.2,19.88h-5.75l10.9-19.88,20.99-38.44h32.89l-47.22,79.71-.91-9.38,49.34,79.61h-34.81l-23.11-40.76-11.5-21.09,7.26-.2-11.1,21.29-22.6,40.76h-33Z"/>
  </g>
</svg>