<?xml version="1.0" standalone="no"?>
<!DOCTYPE svg PUBLIC "-//W3C//DTD SVG 20010904//EN"
 "http://www.w3.org/TR/2001/REC-SVG-20010904/DTD/svg10.dtd">
<svg version="1.0" xmlns="http://www.w3.org/2000/svg"
 width="230.000000pt" height="230.000000pt" viewBox="0 0 230.000000 230.000000"
 preserveAspectRatio="xMidYMid meet">
<metadata>
Created by potrace 1.14, written by Peter Selinger 2001-2017
</metadata>
<g transform="translate(0.000000,230.000000) scale(0.100000,-0.100000)"
fill="#000000" stroke="none">
<path d="M1867 1952 c-31 -34 -12 -118 32 -142 28 -14 67 -12 80 4 58 70 -52
205 -112 138z"/>
<path d="M230 1842 c-73 -10 -88 -150 -25 -218 19 -21 71 -43 91 -39 10 2 22
4 26 4 4 1 16 10 26 22 75 80 -10 246 -118 231z"/>
<path d="M1812 1722 c-116 -30 -209 -58 -206 -61 3 -3 57 -6 121 -7 156 -2
153 2 177 -219 8 -78 17 -148 20 -170 2 -11 7 -55 11 -97 l7 -77 67 -45 c36
-25 99 -75 139 -112 40 -36 74 -65 76 -63 2 2 -2 42 -10 89 -8 47 -16 103 -19
125 -3 22 -10 65 -15 95 -5 30 -12 73 -15 95 -3 22 -12 83 -21 135 -8 52 -17
112 -20 135 -22 182 -41 237 -83 234 -9 0 -112 -26 -229 -57z"/>
<path d="M730 1575 c-52 -7 -122 -16 -155 -20 -178 -20 -347 -46 -365 -57 -31
-20 -48 -66 -54 -153 -4 -44 -8 -100 -11 -125 -2 -25 -6 -72 -10 -105 -3 -33
-7 -89 -10 -125 -3 -36 -7 -87 -10 -115 -7 -75 -14 -161 -20 -240 -3 -38 -8
-90 -11 -115 -2 -25 -6 -73 -9 -107 l-5 -63 170 0 c93 0 170 3 171 8 3 21 7
67 14 157 4 55 9 120 11 145 2 25 6 77 9 115 10 125 15 199 20 255 2 30 7 89
10 130 17 219 13 215 240 326 96 46 177 89 180 94 8 13 -47 11 -165 -5z"/>
<path d="M1035 1290 c-49 -10 -119 -28 -154 -40 -126 -42 -305 -143 -315 -178
-3 -9 -8 -57 -11 -107 -3 -49 -8 -110 -10 -135 -3 -25 -7 -83 -11 -130 -3 -47
-7 -101 -9 -120 -2 -19 -6 -78 -9 -130 l-5 -95 18 65 c44 157 119 315 200 423
185 247 465 401 762 419 22 1 39 7 39 14 0 31 -355 41 -495 14z"/>
<path d="M1270 1169 c-92 -24 -181 -65 -271 -125 -94 -62 -91 -80 6 -39 106
45 198 63 303 60 171 -4 295 -54 446 -179 l49 -40 148 -2 c91 -1 149 2 149 8
0 13 -90 98 -163 155 -74 57 -203 125 -292 153 -100 32 -272 36 -375 9z"/>
</g>
</svg>
